<svg xmlns="http://www.w3.org/2000/svg" xmlns:xlink="http://www.w3.org/1999/xlink" width="64" height="64"><defs><linearGradient id="a"><stop offset="0" stop-color="#fff"/><stop offset="0" stop-color="#fff" stop-opacity=".235"/><stop offset="1" stop-color="#fff" stop-opacity=".157"/><stop offset="1" stop-color="#fff" stop-opacity=".392"/></linearGradient><linearGradient id="d"><stop offset="0" stop-color="#586e75"/><stop offset="1" stop-color="#073642"/></linearGradient><linearGradient id="b"><stop offset="0" stop-color="#fdf6e3"/><stop offset="1" stop-color="#eee8d5"/></linearGradient><linearGradient x1="41.453" y1="-3.75" x2="41.453" y2="42.06" id="i" xlink:href="#a" gradientUnits="userSpaceOnUse" gradientTransform="matrix(1.43243 0 0 1.13514 -.379 10.257)"/><linearGradient x1="25.132" y1=".985" x2="25.132" y2="47.013" id="h" xlink:href="#b" gradientUnits="userSpaceOnUse" gradientTransform="matrix(1.57143 0 0 .95605 -3.714 13.088)"/><linearGradient xlink:href="#d" id="j" gradientUnits="userSpaceOnUse" gradientTransform="matrix(1.51638 .40322 -.2486 .92087 3.955 .187)" x1="17.234" y1="-1.663" x2="26.343" y2="54.478"/><linearGradient y2="47.013" x2="25.132" y1=".985" x1="25.132" gradientTransform="matrix(1.57143 0 0 .95605 -5.714 12.904)" gradientUnits="userSpaceOnUse" id="e" xlink:href="#d"/><linearGradient y2="42.06" x2="41.453" y1="-3.75" x1="41.453" gradientTransform="matrix(1.43243 0 0 1.13514 -4.379 8.257)" gradientUnits="userSpaceOnUse" id="f" xlink:href="#a"/><radialGradient cx="19.534" cy="40.43" r="23.93" fx="19.534" fy="40.43" id="g" xlink:href="#c" gradientUnits="userSpaceOnUse" gradientTransform="matrix(1.00296 0 0 .08358 14.407 56.62)"/><radialGradient cx="62.625" cy="4.625" r="10.625" id="c" gradientUnits="userSpaceOnUse" gradientTransform="matrix(1.12941 0 0 .28235 -58.73 19.694)"><stop offset="0"/><stop offset="1" stop-opacity="0"/></radialGradient></defs><path d="M51.5 2.537l-.003 55H8.5v-55h43z" fill="url(#e)" stroke="#001921" stroke-linejoin="round" stroke-opacity=".502" transform="rotate(-5 44.654 3.672)"/><path d="M9.5 56.5v-53h41v53z" opacity=".3" fill="none" stroke="url(#f)" stroke-linecap="round" transform="rotate(-5 44.654 3.672)"/><path style="marker:none" d="M58 60a24 2 0 01-48 0 24 2 0 1148 0z" color="#000" overflow="visible" opacity=".2" fill="url(#g)"/><path d="M55.5 4.5l-.003 55H12.5v-55h43z" fill="url(#h)" stroke="#aa8e37" stroke-linejoin="round" stroke-opacity=".502"/><path d="M17 12.5h3.13m.448 0h2.907m.468 0h2.593m.427 0h1.118m.447 0h2.505m.491 0h6.575m.447 0h5.009m.447 0h1.52M17 15.5h4.854m.565 0h2.319m.429 0h1.144m.466 0h2.136m.448 0h2.19m.414 0h3.44m.448 0h4.539M17 18.487h4.108m.432 0h6.766m.415 0h3.281m.42 0h3.07m.44 0h2.616m.42 0l4.113.026M17 21.5h5.712m.449 0h6.174m.426 0h2.426m.447 0h5.775m.389 0h3.958m.447 0h1.566m.448 0h.866M17 24.5h2.132m.655 0h7.895M17 37.5h4.854m.565 0h2.319m.429 0h1.144m.466 0h2.136m.448 0h2.19m.414 0h3.44M17 41.46h4.108m.432 0h6.766m.415 0h3.281m11.596.08H50.3M17 34.5h5.712m.449 0h6.174m.426 0h2.426m.447 0h5.775M17 28.5h3.13m.448 0h2.907m.468 0h2.593m.427 0h1.118m.447 0h2.505m.491 0h6.575m.447 0h5.009M17 31.5h5.272m.415 0h5.598m.427 0H30.9m.413 0h5.267m.423 0h5.752M17 44.5h4.927m.529 0h2.172m.508 0h1.084m.345 0h2.138m.284 0H40.31m.532 0h3.023m.406 0h.763m-22.421 3h1.607m-7.22 0h5.142m2.489 0h3.74m.395 0h5.489m.426 0h3.724m.375 0h.767m.42 0h4.728m.483 0h2.476m-25.041 3h2.269M17 50.5h5.142m3.232 0h3.19" opacity=".2" fill="none" stroke="#aa8e37"/><path d="M13.5 58.5v-53h41v53z" fill="none" stroke="url(#i)" stroke-linecap="round"/><path d="M39 25c1.446 0 2.212.214 2.938.656.72.436 1.062 1.13 1.062 2.063V30.5c0 .556.248.944.688 1.219.433.269 1.413.437 2.312.437v1.688c-1.771 0-3 .576-3 1.687v2.531c0 1.022-.327 1.796-1 2.25-.679.46-1.46.676-3 .688v-1.625c.766-.012 1.16-.155 1.5-.406.34-.251.5-.604.5-1.094v-2.688c0-1.2.6-1.91 2.125-2.125v-.125C41.6 32.704 41 31.97 41 30.781v-2.656c0-.49-.16-.818-.5-1.063-.346-.25-.74-.407-1.5-.437zm-10 0v1.625c-.759.03-1.153.187-1.5.437-.34.245-.5.573-.5 1.063v2.656c0 1.19-.6 1.923-2.125 2.156v.125c1.526.216 2.125.925 2.125 2.125v2.688c0 .49.16.843.5 1.094.34.25.734.394 1.5.406V41c-1.538-.012-2.32-.227-3-.688-.672-.454-1-1.228-1-2.25v-2.53c0-1.112-1.228-1.688-3-1.688v-1.688c.9 0 1.88-.168 2.313-.437.44-.275.687-.663.687-1.219v-2.781c0-.932.344-1.627 1.063-2.063C26.789 25.214 27.555 25 29 25z" style="line-height:125%;-inkscape-font-specification:'Open Sans Semi-Bold';text-align:start;isolation:auto;mix-blend-mode:normal;solid-color:#000;solid-opacity:1;marker:none" color="#000" font-weight="600" font-size="19" font-family="Open Sans" letter-spacing="0" word-spacing="0" overflow="visible" fill="#fff"/><path style="line-height:125%;-inkscape-font-specification:'Open Sans Semi-Bold';text-align:start;isolation:auto;mix-blend-mode:normal;solid-color:#000;solid-opacity:1;marker:none" d="M29 24c-1.445 0-2.211.214-2.937.656-.72.436-1.063 1.13-1.063 2.063V29.5c0 .556-.247.944-.687 1.219-.433.269-1.413.437-2.313.437v1.688c1.772 0 3 .576 3 1.687v2.531c0 1.022.328 1.796 1 2.25.68.46 1.462.676 3 .688v-1.625c-.766-.012-1.16-.155-1.5-.406-.34-.251-.5-.604-.5-1.094v-2.688c0-1.2-.6-1.91-2.125-2.125v-.125C26.401 31.704 27 30.97 27 29.781v-2.656c0-.49.16-.818.5-1.063.347-.25.741-.407 1.5-.437zm10 0v1.625c.76.03 1.154.187 1.5.437.34.245.5.573.5 1.063v2.656c0 1.19.6 1.923 2.125 2.156v.125C41.6 32.278 41 32.987 41 34.187v2.688c0 .49-.16.843-.5 1.094-.34.25-.734.394-1.5.406V40c1.54-.012 2.321-.227 3-.688.673-.454 1-1.228 1-2.25v-2.53c0-1.112 1.229-1.688 3-1.688v-1.688c-.899 0-1.88-.168-2.312-.437-.44-.275-.688-.663-.688-1.219v-2.781c0-.932-.343-1.627-1.062-2.063C41.212 24.214 40.446 24 39 24z" color="#000" font-weight="600" font-size="19" font-family="Open Sans" letter-spacing="0" word-spacing="0" overflow="visible" fill="url(#j)"/></svg>