<svg xmlns="http://www.w3.org/2000/svg" xmlns:xlink="http://www.w3.org/1999/xlink" version="1.0" width="64" height="64"><defs><linearGradient id="f"><stop offset="0" stop-color="#ed5353"/><stop offset="1" stop-color="#c6262e"/></linearGradient><linearGradient id="a"><stop offset="0"/><stop offset="1" stop-opacity="0"/></linearGradient><linearGradient id="b"><stop offset="0" stop-opacity="0"/><stop offset=".5"/><stop offset="1" stop-opacity="0"/></linearGradient><linearGradient x1="302.857" y1="366.648" x2="302.857" y2="609.505" id="g" xlink:href="#b" gradientUnits="userSpaceOnUse" gradientTransform="matrix(.1139 0 0 .02059 -9.169 48.523)"/><linearGradient xlink:href="#c" id="j" x1="36" y1="59" x2="36" y2="49" gradientUnits="userSpaceOnUse"/><linearGradient y2="44.341" x2="71.204" y1="6.238" x1="71.204" gradientTransform="matrix(-.05405 0 0 .05405 22.44 53.223)" gradientUnits="userSpaceOnUse" id="m" xlink:href="#d"/><linearGradient id="d"><stop offset="0" stop-color="#fff"/><stop offset=".508" stop-color="#fff" stop-opacity=".235"/><stop offset=".835" stop-color="#fff" stop-opacity=".157"/><stop offset="1" stop-color="#fff" stop-opacity=".392"/></linearGradient><linearGradient y2="8.093" x2="38.977" y1="59.968" x1="38.977" gradientTransform="matrix(-.07843 0 0 .07843 21.01 51.833)" gradientUnits="userSpaceOnUse" id="l" xlink:href="#c"/><linearGradient id="c"><stop offset="0" stop-color="#2b3235"/><stop offset="1" stop-color="#374044"/></linearGradient><linearGradient xlink:href="#e" id="n" gradientUnits="userSpaceOnUse" gradientTransform="matrix(1.54054 0 0 1.21622 -4.973 5.882)" x1="40.29" y1="5.853" x2="40.29" y2="42.03"/><linearGradient id="e"><stop offset="0" stop-color="#fff"/><stop offset=".022" stop-color="#fff" stop-opacity=".235"/><stop offset=".977" stop-color="#fff" stop-opacity=".157"/><stop offset="1" stop-color="#fff" stop-opacity=".392"/></linearGradient><linearGradient gradientUnits="userSpaceOnUse" y2="58.37" x2="36.583" y1="11.213" x1="36.583" id="k" xlink:href="#f"/><radialGradient cx="605.714" cy="486.648" r="117.143" fx="605.714" fy="486.648" id="i" xlink:href="#a" gradientUnits="userSpaceOnUse" gradientTransform="matrix(.03213 0 0 .02059 40.137 48.451)"/><radialGradient cx="605.714" cy="486.648" r="117.143" fx="605.714" fy="486.648" id="h" xlink:href="#a" gradientUnits="userSpaceOnUse" gradientTransform="matrix(-.03213 0 0 .02059 23.863 48.451)"/></defs><path style="marker:none" overflow="visible" opacity=".3" fill="url(#g)" d="M4.5 56.071h55v5h-55z"/><path d="M4.5 56v5c-1.655.01-4-1.12-4-2.5s1.846-2.5 4-2.5z" style="marker:none" opacity=".3" fill="url(#h)" overflow="visible"/><path d="M59.5 56v5c1.655.01 4-1.12 4-2.5s-1.846-2.5-4-2.5z" style="marker:none" opacity=".3" fill="url(#i)" overflow="visible"/><path style="marker:none" d="M2.5 51v5.5c0 1.108.892 2 2 2h55c1.108 0 2-.892 2-2V51z" color="#000" overflow="visible" opacity=".9" fill="url(#j)"/><path style="marker:none" d="M4.5 11.5c-1.108 0-2 .892-2 2V51h59V13.5c0-1.108-.892-2-2-2z" color="#000" overflow="visible" fill="url(#k)"/><rect ry=".463" y="55" x="6" height="1" width="52" opacity=".05" fill="#fff" stroke-width="2" stroke-linecap="round" stroke-linejoin="round"/><path style="line-height:normal;text-indent:0;text-align:start;text-decoration-line:none;text-decoration-style:solid;text-decoration-color:#000;text-transform:none;block-progression:tb;white-space:normal;isolation:auto;mix-blend-mode:normal;solid-color:#000;solid-opacity:1;marker:none" d="M4.5 11A2.506 2.506 0 002 13.5V51h1V13.5c0-.84.66-1.5 1.5-1.5h55c.84 0 1.5.66 1.5 1.5V51h1V13.5c0-1.376-1.124-2.5-2.5-2.5h-55z" color="#000" font-weight="400" font-family="sans-serif" overflow="visible" opacity=".5" fill="#7a0000" stroke-linecap="round" stroke-linejoin="round"/><path d="M25.129 22.007c-.01 0-.215.027-.226.028l-.197.057-.198.057-.198.086-.197.114c-.01.005-.161.107-.17.114l-.169.142c-.008.007-.134.135-.14.143-.008.008-.136.162-.142.17-.006.01-.136.191-.141.2l-.085.171-.084.2c-.004.01-.082.189-.085.199l-.057.228-.028.2v17.72c0 .007.027.135.028.142l.029.143.028.142.028.143.057.142.056.143.085.142c.003.007.08.108.084.114.004.006.08.137.085.143l.085.113c.005.006.107.11.113.114.005.006.107.081.112.086.006.005.107.11.113.114l.113.085c.006.005.135.082.141.086l.113.057.141.057.141.057c.007.002.134.055.142.057l.14.028.17.029c.007 0 .134.028.141.028h.282c.008 0 .162-.027.17-.028h.14c.008-.002.135-.055.142-.057.007-.002.134-.026.141-.029l.141-.057.141-.057c.007-.003.135-.053.141-.057l15.353-8.66a.99.999 0 000-.03c.007-.003.135-.052.141-.056.007-.004.107-.11.113-.114.006-.005.136-.08.141-.086l.113-.113c.006-.006.08-.109.085-.114l.113-.114.085-.114.084-.143.057-.114.084-.142c.003-.007.026-.135.029-.143l.056-.17.028-.143.028-.143.029-.17v-.143-.142c0-.008-.028-.164-.029-.171a13.4 13.4 0 00-.056-.285 23.766 23.766 0 00-.056-.171c-.003-.007-.026-.136-.029-.143l-.084-.142a10.582 10.582 0 00-.057-.114l-.084-.142a12.84 12.84 0 00-.085-.114l-.113-.114c-.005-.006-.08-.109-.085-.114-.005-.006-.107-.11-.113-.114-.005-.005-.135-.081-.14-.086-.007-.004-.107-.11-.114-.114-.006-.004-.134-.053-.14-.057a.99.999 0 000-.028l-15.354-8.661v.028l-.14-.085-.17-.086a16.412 16.412 0 00-.17-.057l-.14-.028a16.341 16.341 0 00-.367-.057h-.34z" opacity=".07" fill="#7a0000" fill-rule="evenodd"/><path d="M25.214 23.004A1.333 1.345 0 0024 24.344v17.321a1.333 1.345 0 001.976 1.168l15.353-8.66a1.333 1.345 0 000-2.337l-15.353-8.66a1.333 1.345 0 00-.762-.172z" fill="#7a0000" fill-rule="evenodd" opacity=".15"/><path d="M25.214 22.004A1.333 1.345 0 0024 23.344v17.321a1.333 1.345 0 001.976 1.168l15.353-8.66a1.333 1.345 0 000-2.337l-15.353-8.66a1.333 1.345 0 00-.762-.172z" fill="#fafafa" fill-rule="evenodd"/><path d="M2.5 51.5H61" opacity=".2" fill="none" fill-rule="evenodd" stroke="#000"/><rect width="52" height="1" x="6" y="54" ry=".463" opacity=".4" stroke-width="2" stroke-linecap="round" stroke-linejoin="round"/><path d="M18.5 52.5c1.104 0 2 .896 2 2s-.896 2-2 2-2-.896-2-2 .896-2 2-2z" style="marker:none" color="#000" overflow="visible" fill="url(#l)"/><path d="M17.563 54.594a1 1 0 102 0 1 1 0 00-2 0h0z" style="marker:none" color="#000" overflow="visible" opacity=".15" fill="none" stroke="url(#m)" stroke-linecap="round" stroke-linejoin="round"/><path d="M18.5 52.5c1.104 0 2 .896 2 2s-.896 2-2 2-2-.896-2-2 .896-2 2-2z" style="marker:none" color="#000" overflow="visible" fill="none" stroke="#292e2f" stroke-linecap="round" stroke-linejoin="round"/><path style="line-height:normal;text-indent:0;text-align:start;text-decoration-line:none;text-decoration-style:solid;text-decoration-color:#000;text-transform:none;block-progression:tb;white-space:normal;isolation:auto;mix-blend-mode:normal;solid-color:#000;solid-opacity:1;marker:none" d="M2 51v5.5C2 57.876 3.124 59 4.5 59h55c1.376 0 2.5-1.124 2.5-2.5V51h-1v5.5c0 .84-.66 1.5-1.5 1.5h-55c-.84 0-1.5-.66-1.5-1.5V51z" color="#000" font-weight="400" font-family="sans-serif" overflow="visible" opacity=".5" stroke-linecap="round" stroke-linejoin="round"/><path style="marker:none" d="M4 52.5h56m-56-2h56M4.5 12.571h55c.554 0 1 .446 1 1v43c0 .554-.446 1-1 1h-55c-.554 0-1-.446-1-1v-43c0-.554.446-1 1-1z" opacity=".3" fill="none" stroke="url(#n)" stroke-linecap="round" stroke-linejoin="round" color="#000" overflow="visible"/></svg>