<svg xmlns="http://www.w3.org/2000/svg" xmlns:xlink="http://www.w3.org/1999/xlink" height="64" width="64"><defs><linearGradient id="e"><stop offset="0" stop-color="#ffa154"/><stop offset="1" stop-color="#f37329"/></linearGradient><linearGradient gradientTransform="matrix(1.43243 0 0 1.43628 -2.378 -2.47)" gradientUnits="userSpaceOnUse" xlink:href="#a" id="j" y2="43" x2="24" y1="5" x1="24"/><linearGradient id="a"><stop offset="0" stop-color="#fff"/><stop offset=".063" stop-color="#fff" stop-opacity=".235"/><stop offset=".951" stop-color="#fff" stop-opacity=".157"/><stop offset="1" stop-color="#fff" stop-opacity=".392"/></linearGradient><linearGradient id="b"><stop offset="0" stop-color="#181818"/><stop offset="1" stop-color="#181818" stop-opacity="0"/></linearGradient><linearGradient id="c"><stop offset="0" stop-color="#181818"/><stop offset="1" stop-color="#181818" stop-opacity="0"/></linearGradient><linearGradient id="d"><stop offset="0" stop-color="#181818" stop-opacity="0"/><stop offset=".5" stop-color="#181818"/><stop offset="1" stop-color="#181818" stop-opacity="0"/></linearGradient><linearGradient gradientUnits="userSpaceOnUse" xlink:href="#d" id="h" y2="39.999" x2="25.058" y1="47.028" x1="25.058"/><linearGradient gradientUnits="userSpaceOnUse" y2="59.185" x2="31.585" y1="4.63" x1="31.585" id="i" xlink:href="#e"/><radialGradient gradientTransform="matrix(2.00378 0 0 1.4 27.988 -17.4)" gradientUnits="userSpaceOnUse" xlink:href="#b" id="f" fy="43.5" fx="4.993" r="2.5" cy="43.5" cx="4.993"/><radialGradient gradientTransform="matrix(2.00378 0 0 1.4 -20.012 -104.4)" gradientUnits="userSpaceOnUse" xlink:href="#c" id="g" fy="43.5" fx="4.993" r="2.5" cy="43.5" cx="4.993"/></defs><g opacity=".6"><path fill="url(#f)" d="M38 40h5v7h-5z" transform="matrix(1.57895 0 0 .71429 -5.895 27.929)"/><path transform="matrix(-1.57895 0 0 -.71429 -5.895 27.929)" fill="url(#g)" d="M-10-47h5v7h-5z"/><path fill="url(#h)" d="M10 40h28v7H10z" transform="matrix(1.57895 0 0 .71429 -5.895 27.929)"/></g><rect width="55" height="55" rx="3" ry="3" x="4.5" y="4.5" style="marker:none" color="#000" overflow="visible" fill="url(#i)"/><rect width="53" height="53.142" rx="2" ry="2" x="5.5" y="5.429" opacity=".5" fill="none" stroke="url(#j)" stroke-linecap="round" stroke-linejoin="round"/><rect width="55" height="55" rx="3" ry="3" x="4.5" y="4.5" style="marker:none" color="#000" overflow="visible" opacity=".5" fill="none" stroke="#a62100" stroke-linecap="round" stroke-linejoin="round"/><path style="font-variation-settings:normal;isolation:auto;mix-blend-mode:normal;solid-color:#000;solid-opacity:1;marker:none" d="M42.736 16a1 1 0 00-.248.031l-14.742 3.81a1 1 0 00-.01.003c-1.618.433-2.738 1.925-2.738 3.59v18.84c-1.035-.261-2.14-.371-3.312-.067-1.554.404-2.843 1.26-3.682 2.377-.839 1.117-1.222 2.54-.842 3.918.762 2.76 4.036 4.073 7.15 3.264 2.49-.647 4.306-2.482 4.612-4.639a1 1 0 00.01-.137l.06-18.416 11.994-3.21v12.911c-1.035-.26-2.14-.37-3.312-.066-1.554.404-2.843 1.26-3.682 2.377-.839 1.117-1.222 2.54-.842 3.918.763 2.76 4.038 4.073 7.153 3.264 2.489-.647 4.305-2.482 4.611-4.64a1 1 0 00.01-.138l.062-24.363a1 1 0 000-.002c0-1.273-.872-2.407-2.084-2.611a1 1 0 00-.168-.014z" color="#000" overflow="visible" opacity=".15" fill="#a62100"/><path d="M42.739 17l-14.743 3.81c-1.107.297-1.999 1.478-1.999 2.624v20.179a5.677 5.677 0 00-4.06-.437c-2.698.7-4.39 2.966-3.81 5.06.578 2.093 3.236 3.262 5.934 2.56 2.152-.559 3.636-2.141 3.873-3.81l.062-19.179 13.993-3.748v15.556a5.677 5.677 0 00-4.06-.437c-2.699.7-4.39 2.966-3.811 5.06.578 2.093 3.236 3.262 5.934 2.56 2.153-.559 3.637-2.141 3.873-3.81l.063-24.364c0-.86-.532-1.503-1.25-1.624z" style="font-variation-settings:normal;isolation:auto;mix-blend-mode:normal;solid-color:#000;solid-opacity:1;marker:none" color="#000" overflow="visible" opacity=".3" fill="#a62100"/><path d="M42.739 16l-14.743 3.81c-1.107.297-1.999 1.477-1.999 2.624v20.178a5.677 5.677 0 00-4.06-.437c-2.698.701-4.39 2.967-3.81 5.06.578 2.093 3.236 3.262 5.934 2.561 2.152-.56 3.636-2.142 3.873-3.81l.062-19.18 13.993-3.748v15.556a5.677 5.677 0 00-4.06-.437c-2.699.701-4.39 2.967-3.811 5.06.578 2.093 3.236 3.262 5.934 2.561 2.153-.56 3.637-2.142 3.873-3.81l.063-24.364c0-.86-.532-1.504-1.25-1.624z" style="font-variation-settings:normal;isolation:auto;mix-blend-mode:normal;solid-color:#000;solid-opacity:1;marker:none" color="#000" overflow="visible" fill="#fff"/></svg>