<svg xmlns="http://www.w3.org/2000/svg" xmlns:xlink="http://www.w3.org/1999/xlink" width="64" height="64"><defs><linearGradient x1="38.851" y1="41.608" x2="34.131" y2="37.81" id="at" xlink:href="#a" gradientUnits="userSpaceOnUse" gradientTransform="matrix(.17122 0 0 .17912 39.858 39.698)"/><linearGradient id="a"><stop offset="0" stop-color="#fbac9b"/><stop offset="1" stop-color="#fcfafc"/></linearGradient><linearGradient x1="38.851" y1="41.608" x2="34.131" y2="37.81" id="as" xlink:href="#b" gradientUnits="userSpaceOnUse" gradientTransform="matrix(.24482 0 0 .2561 36.733 36.181)"/><linearGradient id="b"><stop offset="0" stop-color="#feffff"/><stop offset="1" stop-color="#fe70ca"/></linearGradient><linearGradient id="c"><stop offset="0" stop-color="#fff"/><stop offset="1" stop-color="#fff" stop-opacity="0"/></linearGradient><linearGradient id="d"><stop offset="0" stop-color="#fff"/><stop offset="1" stop-color="#fff" stop-opacity="0"/></linearGradient><linearGradient id="e"><stop offset="0" stop-color="#fff"/><stop offset="1" stop-color="#fff" stop-opacity="0"/></linearGradient><linearGradient id="f"><stop offset="0" stop-color="#ff54d2" stop-opacity="0"/><stop offset=".324" stop-color="#ff54d2" stop-opacity="0"/><stop offset=".561" stop-color="#ff54d2" stop-opacity=".252"/><stop offset="1" stop-color="#ff54d2" stop-opacity=".478"/></linearGradient><linearGradient id="g"><stop offset="0" stop-color="#fff" stop-opacity="0"/><stop offset=".405" stop-color="#fff" stop-opacity="0"/><stop offset="1" stop-color="#fff" stop-opacity=".478"/></linearGradient><linearGradient id="h"><stop offset="0" stop-color="#fff" stop-opacity="0"/><stop offset=".405" stop-color="#fff" stop-opacity="0"/><stop offset="1" stop-color="#fff" stop-opacity=".478"/></linearGradient><linearGradient id="i"><stop offset="0" stop-color="#fff" stop-opacity="0"/><stop offset=".405" stop-color="#fff" stop-opacity="0"/><stop offset="1" stop-color="#fff" stop-opacity=".478"/></linearGradient><linearGradient x1="68.313" y1="52.925" x2="68.313" y2="65.922" id="ak" xlink:href="#j" gradientUnits="userSpaceOnUse" gradientTransform="matrix(.07464 0 0 .05598 43.005 43.758)"/><linearGradient id="j"><stop offset="0" stop-color="#fff"/><stop offset="1" stop-color="#fff" stop-opacity="0"/></linearGradient><linearGradient x1="92.696" y1="16.555" x2="92.696" y2="48.984" id="aj" xlink:href="#k" gradientUnits="userSpaceOnUse" gradientTransform="translate(33.637 42.92) scale(.15597)"/><linearGradient id="k"><stop offset="0" stop-color="#fff"/><stop offset=".338" stop-color="#fff" stop-opacity=".235"/><stop offset=".62" stop-color="#fff" stop-opacity=".157"/><stop offset="1" stop-color="#fff" stop-opacity=".392"/></linearGradient><linearGradient id="l"><stop offset="0" stop-color="#ff54d2" stop-opacity="0"/><stop offset=".324" stop-color="#f62b68"/><stop offset=".561" stop-color="#ff0105"/><stop offset="1" stop-color="#ff54d2" stop-opacity=".478"/></linearGradient><linearGradient x1="92.696" y1="16.555" x2="92.696" y2="48.984" id="ah" xlink:href="#m" gradientUnits="userSpaceOnUse" gradientTransform="matrix(.34314 0 0 -.34314 16.4 59.177)"/><linearGradient id="m"><stop offset="0" stop-color="#fff"/><stop offset=".338" stop-color="#fff" stop-opacity=".235"/><stop offset=".62" stop-color="#fff" stop-opacity=".157"/><stop offset="1" stop-color="#fff" stop-opacity=".392"/></linearGradient><linearGradient id="n"><stop offset="0" stop-opacity="0"/><stop offset=".5" stop-opacity="0"/><stop offset="1"/></linearGradient><linearGradient id="o"><stop offset="0" stop-color="#612f91"/><stop offset="1" stop-color="#1a4aa2"/></linearGradient><linearGradient x1="7.078" y1="3.082" x2="7.078" y2="45.369" id="af" xlink:href="#p" gradientUnits="userSpaceOnUse" gradientTransform="matrix(.1228 0 0 .1228 45.052 45.053)"/><linearGradient x1="7.078" y1="3.082" x2="7.078" y2="45.369" id="p" gradientUnits="userSpaceOnUse" gradientTransform="matrix(.2211 0 0 .2211 6.693 6.693)"><stop offset="0" stop-color="#170418"/><stop offset="1" stop-color="#50386b"/></linearGradient><linearGradient id="q"><stop offset="0" stop-color="#07132d"/><stop offset="1" stop-color="#425479"/></linearGradient><linearGradient id="r"><stop offset="0" stop-color="#2d3955"/><stop offset=".725" stop-color="#2b3853"/><stop offset=".75" stop-color="#192640"/><stop offset="1" stop-color="#08142e"/></linearGradient><linearGradient x1="92.696" y1="16.555" x2="92.696" y2="48.984" id="ab" xlink:href="#s" gradientUnits="userSpaceOnUse" gradientTransform="matrix(.5303 0 0 .5303 -.834 30.727)"/><linearGradient id="s"><stop offset="0" stop-color="#fff"/><stop offset=".338" stop-color="#fff" stop-opacity=".235"/><stop offset=".62" stop-color="#fff" stop-opacity=".157"/><stop offset="1" stop-color="#fff" stop-opacity=".392"/></linearGradient><linearGradient x1="91.566" y1="16.543" x2="91.566" y2="48.631" id="aa" xlink:href="#t" gradientUnits="userSpaceOnUse" gradientTransform="matrix(.60829 0 0 .60829 -8.015 28.187)"/><linearGradient id="t"><stop offset="0" stop-color="#7a8498"/><stop offset="1" stop-color="#34405c"/></linearGradient><linearGradient x1="51.2" y1="8.114" x2="51.2" y2="56.115" id="Z" xlink:href="#u" gradientUnits="userSpaceOnUse" gradientTransform="matrix(.5 0 0 .5 22.342 32)"/><linearGradient id="u"><stop offset="0" stop-color="#b6b6b6"/><stop offset=".331" stop-color="#a4a4a4"/><stop offset="1" stop-color="#c5c5c5"/></linearGradient><linearGradient x1="71.204" y1="15.369" x2="71.204" y2="40.496" id="Y" xlink:href="#v" gradientUnits="userSpaceOnUse" gradientTransform="matrix(1.11945 0 0 1.11945 -32.798 16.804)"/><linearGradient id="v"><stop offset="0" stop-color="#fff"/><stop offset=".424" stop-color="#fff" stop-opacity=".235"/><stop offset=".821" stop-color="#fff" stop-opacity=".157"/><stop offset="1" stop-color="#fff" stop-opacity=".392"/></linearGradient><linearGradient x1="61.998" y1="138.732" x2="67.635" y2="121.532" id="V" xlink:href="#y" gradientUnits="userSpaceOnUse" gradientTransform="matrix(.5 0 0 .5 -1 -33)" spreadMethod="reflect"/><linearGradient id="y"><stop offset="0" stop-color="#fff"/><stop offset="1" stop-color="#fff" stop-opacity=".543"/></linearGradient><linearGradient x1="-184.924" y1="113.979" x2="-175.253" y2="88.801" id="U" xlink:href="#z" gradientUnits="userSpaceOnUse" gradientTransform="translate(53.927 29.752) scale(.20237)"/><linearGradient id="z"><stop offset="0" stop-color="#7a0f01"/><stop offset="1" stop-color="#d31807"/></linearGradient><linearGradient x1="-211.289" y1="88.75" x2="-208.497" y2="75.191" id="T" xlink:href="#A" gradientUnits="userSpaceOnUse" gradientTransform="matrix(.20493 .0159 -.0169 .19365 62.976 34.06)"/><linearGradient id="A"><stop offset="0" stop-color="#ec4502"/><stop offset="1" stop-color="#fe7617"/></linearGradient><linearGradient x1="-107.456" y1="-37.385" x2="-107.456" y2="38.561" id="S" xlink:href="#B" gradientUnits="userSpaceOnUse" gradientTransform="matrix(.31576 0 0 .31579 73.086 25.926)"/><linearGradient id="B"><stop offset="0" stop-color="#0b85e9"/><stop offset="1" stop-color="#69d1ef"/></linearGradient><linearGradient x1="-96.557" y1="110.925" x2="-96.557" y2="39.992" id="R" xlink:href="#C" gradientUnits="userSpaceOnUse" gradientTransform="matrix(.31576 0 0 .31579 73.086 25.926)"/><linearGradient id="C"><stop offset="0" stop-color="#e89c42"/><stop offset="1" stop-color="#faca67"/></linearGradient><linearGradient x1="41.195" y1="5.54" x2="41.195" y2="42.376" id="Q" xlink:href="#D" gradientUnits="userSpaceOnUse" gradientTransform="matrix(1.43243 0 0 1.13514 -2.379 10.257)"/><linearGradient id="D"><stop offset="0" stop-color="#fff"/><stop offset=".005" stop-color="#fff" stop-opacity=".235"/><stop offset=".991" stop-color="#fff" stop-opacity=".157"/><stop offset="1" stop-color="#fff" stop-opacity=".392"/></linearGradient><linearGradient x1="25.132" y1=".985" x2="25.132" y2="47.013" id="P" xlink:href="#E" gradientUnits="userSpaceOnUse" gradientTransform="matrix(1.54285 0 0 .93432 -5.029 13.643)"/><linearGradient id="E"><stop offset="0" stop-color="#f4f4f4"/><stop offset="1" stop-color="#dbdbdb"/></linearGradient><linearGradient x1="-76.835" y1="6.681" x2="-76.844" y2="52.888" id="O" xlink:href="#F" gradientUnits="userSpaceOnUse" gradientTransform="matrix(1.3372 .00075 .00027 .95577 162.239 9.291)"/><linearGradient id="F"><stop offset="0" stop-opacity=".271"/><stop offset="1" stop-opacity=".368"/></linearGradient><linearGradient id="G"><stop offset="0"/><stop offset="1" stop-opacity="0"/></linearGradient><linearGradient x1="41.141" y1="5.992" x2="41.195" y2="41.923" id="M" xlink:href="#H" gradientUnits="userSpaceOnUse" gradientTransform="matrix(1.35165 .35945 -.287 1.06306 6.448 -.76)"/><linearGradient id="H"><stop offset="0" stop-color="#fff"/><stop offset=".005" stop-color="#fff" stop-opacity=".235"/><stop offset=".991" stop-color="#fff" stop-opacity=".157"/><stop offset="1" stop-color="#fff" stop-opacity=".392"/></linearGradient><linearGradient x1="25.132" y1=".985" x2="25.132" y2="47.013" id="L" xlink:href="#I" gradientUnits="userSpaceOnUse" gradientTransform="matrix(1.45584 .38716 -.23623 .875 3.091 1.746)"/><linearGradient id="I"><stop offset="0" stop-color="#f4f4f4"/><stop offset="1" stop-color="#dbdbdb"/></linearGradient><linearGradient id="J"><stop offset="0" stop-opacity=".271"/><stop offset="1" stop-opacity=".368"/></linearGradient><linearGradient x1="-76.835" y1="6.681" x2="-76.844" y2="52.888" id="K" xlink:href="#J" gradientUnits="userSpaceOnUse" gradientTransform="matrix(1.2616 .33625 -.2414 .89515 162.026 39.643)"/><radialGradient cx="36.491" cy="39.709" r="3.159" fx="36.491" fy="39.709" id="ar" xlink:href="#c" gradientUnits="userSpaceOnUse" gradientTransform="matrix(.24482 0 0 .2561 38.787 37.425)"/><radialGradient cx="36.491" cy="39.709" r="3.159" fx="36.491" fy="39.709" id="aq" xlink:href="#d" gradientUnits="userSpaceOnUse" gradientTransform="matrix(.85823 -.4955 .28192 .4883 2.507 43.37)"/><radialGradient cx="36.491" cy="39.709" r="3.159" fx="36.491" fy="39.709" id="ap" xlink:href="#e" gradientUnits="userSpaceOnUse" gradientTransform="matrix(1.06654 -.61576 .35035 .60682 -2.516 49.427)"/><radialGradient cx="32.373" cy="31.405" r="3.857" fx="32.373" fy="31.405" id="ao" xlink:href="#f" gradientUnits="userSpaceOnUse" gradientTransform="matrix(-.68206 -.68205 .68206 -.68205 48.66 90.606)"/><radialGradient cx="32.373" cy="31.405" r="3.857" fx="32.373" fy="31.405" id="an" xlink:href="#g" gradientUnits="userSpaceOnUse" gradientTransform="matrix(.58389 .8108 -.78273 .56368 53.679 4.044)"/><radialGradient cx="32.373" cy="31.405" r="3.857" fx="32.373" fy="31.405" id="am" xlink:href="#h" gradientUnits="userSpaceOnUse" gradientTransform="matrix(0 .99915 -.96457 0 78.295 15.65)"/><radialGradient cx="32.373" cy="31.405" r="3.857" fx="32.373" fy="31.405" id="al" xlink:href="#i" gradientUnits="userSpaceOnUse" gradientTransform="matrix(.96511 .2586 -.24965 .9317 24.592 10.364)"/><radialGradient cx="32.373" cy="31.405" r="3.857" fx="32.373" fy="31.405" id="ai" xlink:href="#l" gradientUnits="userSpaceOnUse" gradientTransform="rotate(180 39.615 39.148) scale(.96457)"/><radialGradient cx="95.838" cy="95.388" r="9.498" fx="95.838" fy="95.388" id="ag" xlink:href="#n" gradientUnits="userSpaceOnUse" gradientTransform="matrix(.27003 0 0 .25371 22.078 23.7)"/><radialGradient cx="23.896" cy="3.99" r="20.397" id="ae" xlink:href="#o" gradientUnits="userSpaceOnUse" gradientTransform="matrix(0 .29307 -.38685 0 49.543 38.31)"/><radialGradient cx="32" cy="21.239" r="10.498" fx="32" fy="21.239" id="ad" xlink:href="#q" gradientUnits="userSpaceOnUse" gradientTransform="matrix(0 .92988 -2.14202 0 93.494 13.27)"/><radialGradient cx="91.35" cy="16.448" r="15.639" fx="91.35" fy="16.448" id="ac" xlink:href="#r" gradientUnits="userSpaceOnUse" gradientTransform="rotate(90 47.53 14.008) scale(.82309)"/><radialGradient cx="23.896" cy="3.99" r="20.397" fx="23.896" fy="3.99" id="X" xlink:href="#w" gradientUnits="userSpaceOnUse" gradientTransform="matrix(0 2.04308 -2.69683 0 58.76 -15.622)"/><radialGradient cx="23.896" cy="3.99" r="20.397" id="w" gradientUnits="userSpaceOnUse" gradientTransform="matrix(0 1.23165 -1.62575 0 18.487 -28.722)"><stop offset="0" stop-color="#fff"/><stop offset=".262" stop-color="#ddd"/><stop offset=".661" stop-color="#abacae"/><stop offset="1" stop-color="#89898b"/></radialGradient><radialGradient cx="62.625" cy="4.625" r="10.625" id="W" xlink:href="#x" gradientUnits="userSpaceOnUse" gradientTransform="matrix(1.12045 0 0 .30345 -22.297 58.624)"/><radialGradient cx="62.625" cy="4.625" r="10.625" id="x" gradientUnits="userSpaceOnUse" gradientTransform="matrix(1.12941 0 0 .28235 -58.73 19.694)"><stop offset="0"/><stop offset="1" stop-opacity="0"/></radialGradient><radialGradient cx="19.534" cy="40.43" r="23.93" fx="19.534" fy="40.43" id="N" xlink:href="#G" gradientUnits="userSpaceOnUse" gradientTransform="matrix(1.33725 0 0 .08358 5.877 56.62)"/></defs><path style="marker:none" d="M52.386 60.883L.488 47.082 11.613 5.876 63.51 19.677z" color="#000" overflow="visible" fill="none" stroke="url(#K)" stroke-linejoin="round"/><path d="M11.958 6.47l50.954 13.552L52.041 60.29 1.086 46.74l10.872-40.27z" fill="url(#L)"/><path d="M51.695 59.696l-50.01-13.3L12.303 7.063l50.01 13.3z" fill="none" stroke="url(#M)" stroke-linecap="round"/><path style="marker:none" d="M14.376 10.625l44.349 11.797-9.102 33.711L5.273 44.34l9.103-33.715z" color="#000" overflow="visible" fill="#3c92bb" stroke="#2a6683"/><path style="marker:none" d="M64 60a32 2 0 01-64 0 32 2 0 1164 0z" color="#000" overflow="visible" opacity=".2" fill="url(#N)"/><path style="marker:none" d="M59.5 59.5h-55v-44h55z" color="#000" overflow="visible" fill="none" stroke="url(#O)" stroke-linejoin="round"/><path d="M5 16l54 .003V59H5V16z" fill="url(#P)"/><path d="M58.5 58.5h-53v-42h53z" fill="none" stroke="url(#Q)" stroke-linecap="round"/><path style="marker:none" d="M8 19v37h48V19z" color="#000" overflow="visible" fill="url(#R)" stroke-width="10"/><path style="marker:none" d="M8 20.118v21.473c1.109.276 2.49.49 4.118.49 2.215 0 3.377-.4 4.227-.763.85-.362 1.331-.654 3.027-.654 1.619 0 2.932.532 4.555 1.118 1.623.586 3.532 1.2 6.136 1.2 3.235 0 5.33-1.018 7.064-1.964 1.733-.946 3.07-1.773 5.236-1.773 1.71 0 2.478.412 3.546.928 1.067.516 2.412 1.118 4.636 1.118 2.798 0 4.075-1.02 5.455-1.664V20.118z" color="#000" overflow="visible" opacity=".03" stroke-width="10"/><path style="marker:none" d="M8 20.118v20.519c1.072.285 2.462.518 4.118.518 4.221 0 3.619-1.418 7.254-1.418 3.636 0 5.777 2.318 10.691 2.318 6.087 0 7.484-3.737 12.3-3.737 3.76 0 4.043 2.046 8.182 2.046 2.796 0 3.725-1.075 5.455-1.773V20.118z" color="#000" overflow="visible" opacity=".1" stroke-width="10"/><path d="M8 19v18.882c.712.328 1.615.627 2.59.627 2.229 0 4.407-1.8 8.128-1.8 3.72 0 6.518 2.264 11.209 2.264 4.69 0 5.746-3.273 11.727-3.273s5.419 2.073 9.164 2.073c2.58 0 3.681-.901 5.182-1.473V19z" fill="url(#S)"/><path style="marker:none" d="M41.654 34.01c-3.142 0-5.118.889-6.736 1.717-1.618.829-2.839 1.555-4.991 1.555-2.212 0-3.96-.529-5.7-1.091-1.74-.563-3.48-1.173-5.51-1.173-1.993 0-3.597.47-4.908.927-1.312.459-2.328.873-3.219.873-.806 0-1.592-.275-2.236-.573A.83.83 0 008 36.164v3.572c1.104.277 2.49.491 4.118.491 2.204 0 3.325-.402 4.172-.763.848-.362 1.373-.655 3.082-.655 1.641 0 2.961.533 4.582 1.118 1.62.586 3.521 1.2 6.11 1.2 3.213 0 5.304-1.019 7.036-1.963 1.73-.945 3.07-1.773 5.263-1.773 1.73 0 2.533.439 3.6.954 1.067.516 2.376 1.091 4.582 1.091 2.81 0 4.041-1.042 5.455-1.69v-3.137a.83.83 0 00-.3.055c-1.646.627-2.496 1.418-4.882 1.418-1.72 0-2.256-.412-3.382-.955-1.126-.542-2.696-1.118-5.782-1.118z" color="#000" overflow="visible" opacity=".1" fill="#fff" stroke-width="10"/><path style="marker:none" d="M41.654 34.827c-5.98 0-7.037 3.273-11.727 3.273s-7.489-2.263-11.21-2.263c-3.72 0-5.898 1.8-8.127 1.8-.975 0-1.878-.299-2.59-.628v1.882c1.072.285 2.462.518 4.118.518 4.221 0 3.619-1.418 7.254-1.418 3.636 0 5.777 2.318 10.691 2.318 6.087 0 7.484-3.736 12.3-3.736 3.76 0 4.043 2.045 8.182 2.045 2.796 0 3.725-1.074 5.455-1.772v-1.419C54.5 36 53.397 36.9 50.818 36.9c-3.745 0-3.183-2.073-9.164-2.073z" color="#000" overflow="visible" opacity=".3" fill="#fff" stroke-width="10"/><path style="marker:none" d="M41.654 35.7c-5.98 0-7.037 3.273-11.727 3.273s-7.489-2.264-11.21-2.264c-3.72 0-5.898 1.8-8.127 1.8-.975 0-1.878-.299-2.59-.627v1.882c1.072.285 2.462.518 4.118.518 4.221 0 3.619-1.418 7.254-1.418 3.636 0 5.777 2.318 10.691 2.318 6.087 0 7.484-3.737 12.3-3.737 3.76 0 4.043 2.046 8.182 2.046 2.796 0 3.725-1.075 5.455-1.773V36.3c-1.5.572-2.603 1.473-5.182 1.473-3.745 0-3.183-2.073-9.164-2.073z" color="#000" overflow="visible" fill="#fff" stroke-width="10"/><path style="marker:none" d="M8.5 19.5l47 .002V55.5h-47v-36z" color="#000" overflow="visible" opacity=".3" fill="none" stroke="#000"/><path style="marker:none" d="M16.774 41.971a1.245 1.245 0 00-.483.06c-.647.217-.733.65-.799.883a2.854 2.854 0 00-.095.65c-.024.434-.003.918.02 1.403.021.484.05.962.052 1.314l-.002.097-.072.019c-.348.087-.834.184-1.321.287-.488.104-.972.21-1.397.343-.213.066-.407.13-.629.256-.11.063-.236.143-.373.294-.138.15-.301.425-.292.757.018.65.434.858.649.989.214.13.411.208.626.286.43.155.92.285 1.414.414.495.13.987.254 1.342.36.042.013.056.02.094.032-.001.028.003.036 0 .067-.019.34-.07.806-.117 1.276-.046.47-.09.94-.087 1.364.001.212.009.407.066.645.03.119.067.252.176.422.11.17.335.402.673.497.658.184.999-.121 1.197-.273.198-.152.335-.3.48-.469.288-.337.576-.74.86-1.145.283-.405.556-.812.773-1.098.026-.035.04-.043.064-.074.029.01.038.012.069.024.336.122.788.312 1.246.498.458.186.917.366 1.343.494.213.064.414.123.671.144.129.01.275.016.48-.03a1.22 1.22 0 00.703-.451c.39-.535.187-.938.095-1.163a2.894 2.894 0 00-.324-.573c-.25-.364-.569-.744-.888-1.123-.32-.379-.643-.753-.864-1.036-.025-.03-.03-.042-.052-.07.02-.024.022-.033.044-.058.227-.264.555-.619.884-.973.33-.355.656-.706.917-1.05.13-.172.25-.333.352-.558.05-.112.099-.244.116-.442a1.102 1.102 0 00-.236-.773c-.418-.515-.88-.46-1.134-.448a3.316 3.316 0 00-.681.118c-.444.112-.932.281-1.413.45-.48.17-.956.343-1.31.454-.04.013-.054.012-.092.023-.016-.023-.023-.027-.04-.052-.195-.285-.443-.69-.698-1.096-.254-.405-.511-.81-.776-1.15a2.815 2.815 0 00-.454-.487 1.384 1.384 0 00-.404-.244 1.299 1.299 0 00-.373-.084z" color="#000" overflow="visible" opacity=".05" stroke-width="8.869"/><path style="marker:none" d="M16.642 42.96c-.491.165.083 3.705-.229 4.1-.3.383-3.996.77-3.983 1.246.013.492 3.76 1.064 4.063 1.466.291.388-.462 3.833.021 3.968.5.14 2.237-3.046 2.735-3.194.48-.142 3.71 1.592 3.996 1.2.295-.407-2.375-2.945-2.37-3.437.006-.476 2.755-2.845 2.448-3.222-.317-.391-3.705 1.22-4.2 1.063-.477-.152-2.006-3.349-2.48-3.19z" color="#000" overflow="visible" opacity=".15" stroke-width="8.869"/><path style="marker:none" d="M16.64 42.071c.475-.159 2.009 3.042 2.486 3.193.494.158 3.879-1.457 4.196-1.067.307.378-2.441 2.746-2.447 3.222-.005.493 2.665 3.035 2.37 3.441-.286.392-3.518-1.344-3.998-1.202-.498.147-2.233 3.334-2.733 3.194-.482-.135.268-3.577-.023-3.965-.302-.401-4.045-.974-4.058-1.467-.014-.476 3.682-.866 3.983-1.248.31-.396-.267-3.936.224-4.1z" color="#000" overflow="visible" fill="url(#T)" stroke-width="1.999"/><path d="M16.672 42.065l-.139.133c0 .003-.005.004-.006.006-.28.67.168 3.607-.114 3.965a.241.241 0 01-.05.05l.114.077c2.28.678.284-4.09.227-4.225-.01-.002-.021-.007-.031-.006z" opacity=".5" fill="#9d0f06"/><path d="M13.156 47.34c-.449.003-.708.025-.708.025V47.472c.263.48 3.75 1.03 4.04 1.417.292.387-.457 3.83.026 3.965.5.14 2.234-3.047 2.732-3.194.478-.141 3.67 1.571 3.99 1.208l-.005-.006c-2.693-3.276-8.13-3.539-10.075-3.523z" opacity=".75" fill="url(#U)"/><path d="M23.296 19l-.765.266a.43.43 0 00-.031.015l-8.485 3.516-5.969-.719a.43.43 0 00-.046 0v2.313a.43.43 0 00.218-.063 5.04 5.04 0 011.047-.14c.561-.018 1.255.011 1.922.046 1.203.064 2.105.151 2.313.172l.984 2.11-1.922.922a.43.43 0 00-.219.234l-.797 2.047h-.75a.43.43 0 00-.39.25l-.313.719-2.062-.157a.43.43 0 00-.031 0v1.875l4.734.188a.43.43 0 00.266-.078l.875-.625 9.437-.344a.43.43 0 00.031 0L26 31.219l2.484.734a.43.43 0 00.469-.14l.156-.188c.03-.01.053-.036.156-.062.142-.037.331-.068.547-.11.431-.084.975-.186 1.5-.265 1.026-.156 1.941-.276 1.984-.282h.047c.323.007 1.305.173 2.172.344.744.147 1.211.254 1.406.297.158.55.34 1.515.485 2.5a86.22 86.22 0 01.312 2.39.43.43 0 00.016.079 11.652 11.652 0 012.828-.547.43.43 0 00-.094-.235c-.456-.517-1.117-1.777-1.03-4.546l1.624-.063a.43.43 0 00.172-.031s1.358-.668 2.875-1.39c1.517-.724 3.217-1.51 3.797-1.735.198-.077.799-.169 1.515-.219.717-.05 1.569-.079 2.422-.11.854-.03 1.704-.063 2.407-.124.702-.062 1.212-.106 1.625-.36a.43.43 0 00.125-.11v-1.562c-.017-.013-.047-.03-.047-.03a.43.43 0 00-.64.218c-.025.013.01-.001-.095.031-.192.061-.534.128-1.062.203-1.057.15-2.892.313-6 .39a.43.43 0 00-.156.032s-1.775.788-3.579 1.61c-.901.41-1.81.82-2.515 1.156-.353.168-.648.321-.875.437-.114.058-.205.113-.281.157-.017.009-.034.024-.047.03l-1.016.048 1.078-1.454 4.469-2.406a.43.43 0 00.14-.625l-2.906-3.922 6.579-.437a.43.43 0 00.14-.031l3.297-1.5a.43.43 0 00.094-.063.43.43 0 00.015 0 .43.43 0 00.22.094l2.593.172a.43.43 0 00.453-.5L55.843 19h-6.797l-.703.25-5.453.25-.594-.5h-3.03a.43.43 0 00.03.172c.04.095.059.164.079.234-.379.133-2.083.741-3.391.75l-1.297-.218a.43.43 0 00-.062 0c-.447 0-1.64-.241-2.813-.532A75.053 75.053 0 0130.234 19h-6.938zm3.047.594l.657.375a.43.43 0 00.125.047L36 21.969a.43.43 0 00.218-.016l3.313-1.047.984.594 2.813 3.734-3.657 1.797a.43.43 0 00-.14.11l-2.11 2.5-3.812-.266a.43.43 0 00-.125 0l-5 1.031-2.266-.734a.43.43 0 00-.14-.016l-12.454.453c.268-.654.671-1.06 1.125-1.234.582-.221 1.125-.187 1.125-.187a.43.43 0 00.454-.516l-.844-4.063 10.86-4.515z" opacity=".07" fill="url(#V)"/><path d="M59.775 60.028c0 1.78-5.33 3.224-11.904 3.224-6.575 0-11.905-1.443-11.905-3.224 0-1.781 5.33-3.224 11.905-3.224 6.574 0 11.904 1.443 11.904 3.224z" opacity=".6" fill="url(#W)" fill-rule="evenodd"/><path style="marker:none" d="M48 33.5c-8.001 0-14.5 6.5-14.5 14.5S39.999 62.5 48 62.5c8 0 14.5-6.5 14.5-14.5S56 33.5 48 33.5z" color="#000" overflow="visible" fill="url(#X)"/><path style="marker:none" d="M61.5 48c0 7.456-6.045 13.5-13.5 13.5-7.456 0-13.5-6.044-13.5-13.5S40.544 34.5 48 34.5c7.455 0 13.5 6.044 13.5 13.5z" color="#000" overflow="visible" opacity=".8" fill="none" stroke="url(#Y)" stroke-linecap="round" stroke-linejoin="round"/><path style="marker:none" d="M48 36c-6.622 0-12 5.38-12 12 0 6.621 5.379 12 12 12s12-5.38 12-12c0-6.621-5.38-12-12-12z" color="#000" overflow="visible" fill="url(#Z)"/><path style="marker:none" d="M48 36.5c-6.346 0-11.5 5.38-11.5 12 0 6.621 5.155 12 11.5 12s11.5-5.379 11.5-12-5.155-12-11.5-12z" color="#000" overflow="visible" opacity=".05" fill="none" stroke="#000"/><path style="marker:none" d="M57.75 48a9.75 9.75 0 11-19.5 0 9.75 9.75 0 1119.5 0z" color="#000" overflow="visible" fill="url(#aa)" stroke-width=".481"/><path style="marker:none" d="M57.5 48a9.5 9.5 0 11-19 0 9.5 9.5 0 1119 0z" color="#000" overflow="visible" opacity=".3" fill="none" stroke="#000"/><path style="marker:none" d="M56.5 48a8.5 8.5 0 11-17 0 8.5 8.5 0 1117 0z" color="#000" overflow="visible" opacity=".3" fill="none" stroke="url(#ab)"/><path style="marker:none" d="M54.5 48a6.5 6.5 0 11-13 0 6.5 6.5 0 1113 0z" color="#000" overflow="visible" fill="url(#ac)" stroke-width=".481"/><path style="marker:none" d="M54.5 48a6.5 6.5 0 11-13 0 6.5 6.5 0 1113 0z" color="#000" overflow="visible" opacity=".3" fill="none" stroke="#000"/><path style="marker:none" d="M48 33.5c-8.001 0-14.5 6.5-14.5 14.5S39.999 62.5 48 62.5c8 0 14.5-6.5 14.5-14.5S56 33.5 48 33.5z" color="#000" overflow="visible" opacity=".3" fill="none" stroke="#000"/><path d="M48 43.147A4.856 4.856 0 0043.147 48 4.856 4.856 0 0048 52.853 4.856 4.856 0 0052.853 48 4.856 4.856 0 0048 43.147z" fill="url(#ad)"/><path d="M48 43.502A4.501 4.501 0 0043.5 48 4.501 4.501 0 0048 52.498 4.501 4.501 0 0052.498 48 4.501 4.501 0 0048 43.502z" opacity=".3" fill="none" stroke="#000" stroke-width="1.004" stroke-linecap="round" stroke-linejoin="round"/><path d="M48 44.175A3.828 3.828 0 0044.173 48 3.828 3.828 0 0048 51.825 3.828 3.828 0 0051.825 48a3.828 3.828 0 00-3.826-3.825z" fill="#2f3b55"/><path d="M48 45.502A2.5 2.5 0 0045.5 48 2.5 2.5 0 0048 50.498 2.5 2.5 0 0050.498 48 2.5 2.5 0 0048 45.502z" fill="url(#ae)" stroke="url(#af)" stroke-width="1.004" stroke-linecap="round" stroke-linejoin="round"/><path d="M48 46c-1.104 0-2 .896-2 2s.896 2 2 2c1.103 0 2-.896 2-2 0-1.103-.897-2-2-2z" opacity=".5" fill="url(#ag)"/><path style="marker:none" d="M53.5 48a5.5 5.5 0 10-11 0 5.5 5.5 0 1011 0z" color="#000" overflow="visible" opacity=".3" fill="none" stroke="url(#ah)"/><path d="M48 44.502A3.5 3.5 0 0044.5 48 3.5 3.5 0 0048 51.498 3.5 3.5 0 0051.498 48 3.5 3.5 0 0048 44.502z" opacity=".3" fill="none" stroke="#000" stroke-width="1.004" stroke-linecap="round" stroke-linejoin="round"/><path style="marker:none" d="M44.464 47.314a3.601 3.601 0 012.603-2.792L48 48z" color="#000" overflow="visible" opacity=".4" fill="url(#ai)" stroke-width=".467"/><path style="marker:none" d="M50.5 48a2.5 2.5 0 11-5 0 2.5 2.5 0 115 0z" color="#000" overflow="visible" opacity=".3" fill="none" stroke="url(#aj)"/><path style="marker:none" d="M48.852 47.36a.853.64 0 01-1.705 0 .853.64 0 111.705 0z" color="#000" overflow="visible" opacity=".5" fill="url(#ak)"/><path style="marker:none" d="M51.6 48a3.601 3.601 0 01-.227 1.26L48 48z" color="#000" overflow="visible" opacity=".4" fill="url(#al)" stroke-width=".467"/><path style="marker:none" d="M48.323 51.587a3.601 3.601.093 01-1.151-.082L47.999 48z" color="#000" overflow="visible" opacity=".4" fill="url(#am)" stroke-width=".467"/><path style="marker:none" d="M51.058 49.901a3.601 3.601.022 01-1.682 1.427L48 48z" color="#000" overflow="visible" opacity=".4" fill="url(#an)" stroke-width=".467"/><path style="marker:none" d="M45.453 44.554a3.601 3.601 0 015.093 0L47.999 47.1z" color="#000" overflow="visible" opacity=".5" fill="url(#ao)" stroke-width=".467"/><path style="marker:none" d="M53.684 49.108a2.213 3.89 60 11-6.738 3.89 2.213 3.89 60 116.738-3.89z" color="#000" overflow="visible" opacity=".2" fill="url(#ap)" stroke-width=".929"/><path style="marker:none" d="M47.73 43.114a1.781 3.13 60 11-5.421 3.13 1.781 3.13 60 115.422-3.13z" color="#000" overflow="visible" opacity=".4" fill="url(#aq)" stroke-width=".748"/><path style="marker:none" d="M48.494 47.594a.773.809 0 11-1.546 0 .773.809 0 111.546 0z" color="#000" overflow="visible" opacity=".8" fill="url(#ar)" stroke-width=".25"/><path style="marker:none" d="M46.44 46.351a.773.809 0 11-1.546 0 .773.809 0 111.546 0z" color="#000" overflow="visible" opacity=".4" fill="url(#as)" stroke-width=".25"/><path style="marker:none" d="M46.647 46.81a.54.566 0 11-1.082 0 .54.566 0 111.082 0z" color="#000" overflow="visible" opacity=".4" fill="url(#at)" stroke-width=".175"/></svg>