<svg xmlns="http://www.w3.org/2000/svg" xmlns:xlink="http://www.w3.org/1999/xlink" width="64" height="64"><defs><linearGradient id="f"><stop offset="0" stop-color="#fafafa"/><stop offset="1" stop-color="#e2e1de"/></linearGradient><linearGradient id="a"><stop offset="0" stop-color="#181818"/><stop offset="1" stop-color="#181818" stop-opacity="0"/></linearGradient><linearGradient id="b"><stop offset="0" stop-color="#181818"/><stop offset="1" stop-color="#181818" stop-opacity="0"/></linearGradient><linearGradient id="c"><stop offset="0" stop-color="#181818" stop-opacity="0"/><stop offset=".5" stop-color="#181818"/><stop offset="1" stop-color="#181818" stop-opacity="0"/></linearGradient><linearGradient x1="25.058" y1="47.028" x2="25.058" y2="39.999" id="p" xlink:href="#c" gradientUnits="userSpaceOnUse"/><linearGradient id="h"><stop offset="0"/><stop offset="1" stop-opacity="0"/></linearGradient><linearGradient id="d"><stop offset="0" stop-color="#fff"/><stop offset=".063" stop-color="#fff" stop-opacity=".235"/><stop offset=".951" stop-color="#fff" stop-opacity=".157"/><stop offset="1" stop-color="#fff" stop-opacity=".392"/></linearGradient><linearGradient xlink:href="#d" id="s" gradientUnits="userSpaceOnUse" gradientTransform="translate(-2.378 -2.378) scale(1.43243)" x1="24" y1="5" x2="24" y2="43"/><linearGradient xlink:href="#e" id="u" gradientUnits="userSpaceOnUse" gradientTransform="translate(-2.378 -2.378) scale(1.43243)" x1="24" y1="5" x2="24" y2="43"/><linearGradient id="e"><stop offset="0" stop-color="#fff"/><stop offset=".063" stop-color="#fff" stop-opacity=".235"/><stop offset=".951" stop-color="#fff" stop-opacity=".157"/><stop offset="1" stop-color="#fff" stop-opacity=".392"/></linearGradient><linearGradient id="g"><stop offset="0" stop-color="#cdf87e"/><stop offset=".262" stop-color="#a2e34f"/><stop offset=".661" stop-color="#68b723"/><stop offset="1" stop-color="#1d7e0d"/></linearGradient><linearGradient xlink:href="#f" id="q" gradientUnits="userSpaceOnUse" gradientTransform="matrix(1.29039 0 0 1.23733 1.03 -1.067)" x1="25.132" y1="15.5" x2="25.132" y2="48.396"/><linearGradient xlink:href="#g" id="t" x1="24.17" y1="-12.242" x2="24.17" y2="48.934" gradientUnits="userSpaceOnUse"/><linearGradient xlink:href="#h" id="r" gradientUnits="userSpaceOnUse" gradientTransform="matrix(1.4 0 0 .5 -1.6 10)" x1="23.954" y1="15.999" x2="23.954" y2="19.963"/><linearGradient id="i"><stop offset="0" stop-opacity="0"/><stop offset=".5"/><stop offset="1" stop-opacity="0"/></linearGradient><linearGradient id="j"><stop offset="0"/><stop offset="1" stop-opacity="0"/></linearGradient><linearGradient id="k"><stop offset="0" stop-color="#f4f4f4"/><stop offset="1" stop-color="#dbdbdb"/></linearGradient><linearGradient id="l"><stop offset="0" stop-color="#fff"/><stop offset=".012" stop-color="#fff" stop-opacity=".235"/><stop offset=".988" stop-color="#fff" stop-opacity=".157"/><stop offset="1" stop-color="#fff" stop-opacity=".392"/></linearGradient><linearGradient id="m"><stop offset="0" stop-opacity=".318"/><stop offset="1" stop-opacity=".24"/></linearGradient><radialGradient cx="4.993" cy="43.5" r="2.5" fx="4.993" fy="43.5" id="n" xlink:href="#a" gradientUnits="userSpaceOnUse" gradientTransform="matrix(2.00378 0 0 1.4 27.988 -17.4)"/><radialGradient cx="4.993" cy="43.5" r="2.5" fx="4.993" fy="43.5" id="o" xlink:href="#b" gradientUnits="userSpaceOnUse" gradientTransform="matrix(2.00378 0 0 1.4 -20.012 -104.4)"/></defs><g opacity=".35"><path fill="url(#n)" d="M38 40h5v7h-5z" transform="matrix(1.57895 0 0 .71429 -5.895 27.929)"/><path transform="matrix(-1.57895 0 0 -.71429 -5.895 27.929)" fill="url(#o)" d="M-10-47h5v7h-5z"/><path fill="url(#p)" d="M10 40h28v7H10z" transform="matrix(1.57895 0 0 .71429 -5.895 27.929)"/></g><rect width="54" height="54" rx="2.5" ry="2.5" x="5" y="5" style="marker:none" color="#000" fill="url(#q)" overflow="visible"/><rect width="56" height="2" rx="0" ry="0" x="4" y="18" style="marker:none" opacity=".15" fill="url(#r)" overflow="visible"/><rect width="53" height="53" rx="2" ry="2" x="5.5" y="5.5" fill="none" stroke="url(#s)" stroke-linecap="round" stroke-linejoin="round"/><path d="M4.5 18v38.5c0 1.662 1.338 3 3 3h49c1.662 0 3-1.338 3-3V18" opacity=".3" fill="none" stroke="#000"/><path style="marker:none" d="M7.5 4.5c-1.662 0-3 1.338-3 3v10h55v-10c0-1.662-1.338-3-3-3z" color="#000" fill="url(#t)" overflow="visible"/><path style="marker:none" d="M7.5 4.5c-1.662 0-3 1.338-3 3v10h55v-10c0-1.662-1.338-3-3-3z" opacity=".4" color="#000" fill="none" stroke="#126400" stroke-linecap="round" overflow="visible"/><path d="M7.5 5.5c-1.108 0-2 .892-2 2v9h53v-9c0-1.108-.892-2-2-2z" opacity=".5" fill="none" stroke="url(#u)" stroke-linecap="round" stroke-linejoin="round"/><path d="M52.5 45.5h-41zm-.03-18.97L11.5 26.5v26h41zm.03 12.97h-41m41-6h-41m8.028-6.942L19.472 52.5m8.039-25.83L27.5 52.5m7.994-25.92l.012 25.92m7.953-26.01L43.5 52.5" opacity=".2" fill="none" stroke="#fff"/><path d="M52.5 44.5h-41zm-.03-18.97L11.5 25.5v26h41zm.03 12.97h-41m41-6h-41m8.028-6.942L19.472 51.5m8.039-25.829l-.011 25.83m7.994-25.92l.012 25.92m7.953-26.01L43.5 51.5" opacity=".25" fill="none" stroke="#5e553c"/><path style="marker:none" d="M14 12a1.5 1.5 NaN 11-3 0 1.5 1.5 NaN 113 0z" opacity=".3" color="#000" fill="#fff" stroke-width="1.074" overflow="visible"/><path style="marker:none" d="M14 11a1.5 1.5 NaN 11-3 0 1.5 1.5 NaN 113 0z" opacity=".4" color="#000" fill="#126400" stroke-width="1.074" overflow="visible"/><path style="marker:none" d="M52.5 12a1.5 1.5 NaN 11-3 0 1.5 1.5 NaN 113 0z" opacity=".3" color="#000" fill="#fff" stroke-width="1.074" overflow="visible"/><path style="marker:none" d="M52.5 11a1.5 1.5 NaN 11-3 0 1.5 1.5 NaN 113 0z" opacity=".4" color="#000" fill="#126400" stroke-width="1.074" overflow="visible"/></svg>