<svg xmlns="http://www.w3.org/2000/svg" xmlns:xlink="http://www.w3.org/1999/xlink" width="64" height="64"><defs><linearGradient x1="97.539" y1="16.962" x2="97.539" y2="44.261" id="q" xlink:href="#a" gradientUnits="userSpaceOnUse" gradientTransform="matrix(1.32103 0 0 1.26798 -70.73 .174)"/><linearGradient id="a"><stop offset="0" stop-color="#fff"/><stop offset=".022" stop-color="#fff" stop-opacity=".235"/><stop offset=".979" stop-color="#fff" stop-opacity=".157"/><stop offset="1" stop-color="#fff" stop-opacity=".392"/></linearGradient><linearGradient x1="22.935" y1="49.629" x2="22.809" y2="36.658" id="p" xlink:href="#b" gradientUnits="userSpaceOnUse" gradientTransform="matrix(1.54329 0 0 1.31034 -5.038 .345)"/><linearGradient id="b"><stop offset="0" stop-color="#0a0a0a" stop-opacity=".498"/><stop offset="1" stop-color="#0a0a0a" stop-opacity="0"/></linearGradient><linearGradient x1="-91" y1="44" x2="-91" y2="119.06" id="o" xlink:href="#c" gradientUnits="userSpaceOnUse" gradientTransform="matrix(.50413 0 0 .49333 73.844 -1.453)"/><linearGradient id="c"><stop offset="0" stop-color="#e9e9e9"/><stop offset="1" stop-color="#b4b4b4"/></linearGradient><linearGradient id="d"><stop offset="0"/><stop offset="1" stop-opacity="0"/></linearGradient><linearGradient x1="302.857" y1="366.648" x2="302.857" y2="609.505" id="m" xlink:href="#e" gradientUnits="userSpaceOnUse" gradientTransform="matrix(.1077 0 0 .03294 -6.922 40.922)"/><linearGradient id="e"><stop offset="0" stop-opacity="0"/><stop offset=".5"/><stop offset="1" stop-opacity="0"/></linearGradient><linearGradient x1="97.539" y1="8.81" x2="97.539" y2="44.261" id="k" xlink:href="#f" gradientUnits="userSpaceOnUse" gradientTransform="matrix(1.27497 0 0 1.2183 -67.159 -.34)"/><linearGradient id="f"><stop offset="0" stop-color="#fff"/><stop offset=".109" stop-color="#fff" stop-opacity=".235"/><stop offset=".979" stop-color="#fff" stop-opacity=".157"/><stop offset="1" stop-color="#fff" stop-opacity=".392"/></linearGradient><linearGradient x1="-51.786" y1="53.514" x2="-51.786" y2="3.634" id="j" xlink:href="#g" gradientUnits="userSpaceOnUse" gradientTransform="matrix(1.05638 0 0 1.07706 69.976 -2.53)"/><linearGradient id="g"><stop offset="0" stop-opacity=".322"/><stop offset="1" stop-opacity=".278"/></linearGradient><linearGradient id="h"><stop offset="0" stop-color="#f9f9f9"/><stop offset="1" stop-color="#c9c9c9"/></linearGradient><linearGradient x1="62.989" y1="14.091" x2="62.989" y2="16.998" id="i" xlink:href="#h" gradientUnits="userSpaceOnUse" gradientTransform="matrix(1.31355 0 0 1.29006 -55.485 -1.222)"/><radialGradient cx="605.714" cy="486.648" r="117.143" fx="605.714" fy="486.648" id="n" xlink:href="#d" gradientUnits="userSpaceOnUse" gradientTransform="matrix(-.04016 0 0 .03294 30.205 40.921)"/><radialGradient cx="605.714" cy="486.648" r="117.143" fx="605.714" fy="486.648" id="l" xlink:href="#d" gradientUnits="userSpaceOnUse" gradientTransform="matrix(.04016 0 0 .03294 33.797 40.921)"/></defs><path d="M7.5 10c-.276 0-.5.223-.5.5V14H4.5c-.276 0-.5.223-.5.5V24c0 .277.224.5.5.5h55c.278 0 .5-.223.5-.5v-9.5c0-.277-.222-.5-.5-.5H28v-3.5c0-.277-.222-.5-.5-.5h-20z" style="marker:none" color="#000" fill="url(#i)" overflow="visible"/><path d="M8 9.5c-.914.01-1.5.456-1.5 1.333V13.5H4.996C4 13.5 3.5 13.974 3.5 14.842c.045 13.72 0 14.493 0 15.658 1.902 0 57-4.933 57-7.056V15c0-1-.5-1.5-1.5-1.5H28.5v-2.667c0-.877-.225-1.343-1.14-1.333z" style="marker:none" opacity=".8" color="#000" fill="none" stroke="url(#j)" overflow="visible"/><path d="M7.5 10.5v4h-3v10h55v-10h-32v-4h-20z" style="marker:none" color="#000" fill="none" stroke="url(#k)" stroke-linecap="round" stroke-linejoin="round" overflow="visible"/><path d="M58 53v8c2.069.015 5-1.793 5-4 0-2.209-2.307-4-5-4z" style="marker:none" opacity=".3" fill="url(#l)" overflow="visible"/><path style="marker:none" opacity=".3" fill="url(#m)" overflow="visible" d="M6.001 53h52v8h-52z"/><path d="M6 53v8c-2.068.015-5-1.793-5-4 0-2.209 2.309-4 5-4z" style="marker:none" opacity=".3" fill="url(#n)" overflow="visible"/><path d="M2.504 20.532c-1.44.164-.871 1.853-.986 2.803.527 11.193 1.26 21.809 1.783 33.002 0 1.19 1.195 1.137 1.866 1.137h54.49c1.463-.141.855-1.86 1.06-2.845.528-11.193 1.26-21.568 1.784-32.762.018-.752-.5-1.335-1.215-1.335H2.504z" style="marker:none" color="#000" fill="url(#o)" overflow="visible"/><path d="M2.41 20h59.182c.855 0 1.409.584 1.409 1.31l-1.678 35.38c0 .726-.688 1.31-1.543 1.31H4.22c-.855 0-1.543-.584-1.543-1.31L1.001 21.31C1 20.584 1.555 20 2.41 20z" opacity=".4" fill="url(#p)"/><path d="M61.07 21.5l-57.119.031c-1.71 0-1.434.034-1.434 1.076l1.621 32.914c.016.943-.065.979 1.073.979h54.44c.54-11.582 1.257-22.682 1.814-34.322.052-.555.014-.678-.396-.678z" style="marker:none" opacity=".8" color="#000" fill="none" stroke="url(#q)" stroke-linecap="round" stroke-linejoin="round" overflow="visible"/><path d="M32 30L19.812 42.188l2.375 2.343L24 42.75V52h6v-5a2 2 0 114 0v5h6v-9.25l1.812 1.781 2.375-2.343-3.406-3.376v-.03l-6.344-6.344L32 30zm5 1v1.219l3 2.969V31h-3z" style="marker:none" opacity=".3" color="#000" fill="#fff" stroke-width="1.7" overflow="visible"/><path d="M32 29L19.812 41.188l2.375 2.343L24 41.75V51h6v-5a2 2 0 114 0v5h6v-9.25l1.812 1.781 2.375-2.343-3.406-3.376v-.03l-6.344-6.344L32 29zm5 1v1.219l3 2.969V30h-3z" style="marker:none" color="#000" fill="#6c6c6c" fill-opacity=".552" stroke-width="1.7" overflow="visible"/><path d="M2.504 20.532c-1.44.164-.871 1.853-.986 2.803.527 11.193 1.26 21.809 1.783 33.002 0 1.19 1.195 1.137 1.866 1.137h54.49c1.463-.141.855-1.86 1.06-2.845.528-11.193 1.26-21.568 1.784-32.762.018-.752-.5-1.335-1.215-1.335H2.504z" style="marker:none" opacity=".3" color="#000" fill="none" stroke="#000" overflow="visible"/></svg>